<?xml version="1.0" encoding="UTF-8"?>
<svg width="17px" height="18px" viewBox="0 0 17 18" version="1.1" xmlns="http://www.w3.org/2000/svg" xmlns:xlink="http://www.w3.org/1999/xlink">
    <!-- Generator: Sketch 46.2 (44496) - http://www.bohemiancoding.com/sketch -->
    <title>search</title>
    <desc>Created with Sketch.</desc>
    <defs></defs>
    <g id="Page-1" stroke="none" stroke-width="1" fill="none" fill-rule="evenodd">
        <g id="StyleSets" transform="translate(-26.000000, -37.000000)" fill="#FFFFFF">
            <path d="M38.1497999,48.0340859 L37.3819325,48.0340859 L37.109777,47.7632493 C38.0623213,46.6197167 38.6357919,45.1351306 38.6357919,43.5201417 C38.6357919,39.9190173 35.8073185,37 32.3178959,37 C28.8284734,37 26,39.9190173 26,43.5201417 C26,47.1212661 28.8284734,50.0402834 32.3178959,50.0402834 C33.8827902,50.0402834 35.3213265,49.4484551 36.4293882,48.4654184 L36.6918239,48.746286 L36.6918239,49.538734 L41.5517439,54.5441966 L43,53.0495795 L38.1497999,48.0340859 L38.1497999,48.0340859 Z M32.3178959,48.0340859 C29.8976558,48.0340859 27.943968,46.0178575 27.943968,43.5201417 C27.943968,41.0224259 29.8976558,39.0061974 32.3178959,39.0061974 C34.7381361,39.0061974 36.6918239,41.0224259 36.6918239,43.5201417 C36.6918239,46.0178575 34.7381361,48.0340859 32.3178959,48.0340859 L32.3178959,48.0340859 Z" id="search"></path>
        </g>
    </g>
</svg>