<?xml version="1.0" encoding="UTF-8"?>
<svg width="28px" height="21px" viewBox="0 0 28 21" version="1.1" xmlns="http://www.w3.org/2000/svg" xmlns:xlink="http://www.w3.org/1999/xlink">
    <!-- Generator: Sketch 46.2 (44496) - http://www.bohemiancoding.com/sketch -->
    <title>grid</title>
    <desc>Created with Sketch.</desc>
    <defs></defs>
    <g id="Page-1" stroke="none" stroke-width="1" fill="none" fill-rule="evenodd">
        <g id="StyleSets" transform="translate(-1363.000000, -50.000000)" fill="#E6E6E6">
            <path d="M1363,59.6922457 L1371.23496,59.6922457 L1371.23496,50 L1363,50 L1363,59.6922457 Z M1363,71 L1371.23496,71 L1371.23496,61.3077543 L1363,61.3077543 L1363,71 Z M1372.88211,71 L1381.11707,71 L1381.11707,61.3077543 L1372.88211,61.3077543 L1372.88211,71 Z M1382.76504,71 L1391,71 L1391,61.3077543 L1382.76504,61.3077543 L1382.76504,71 Z M1372.88211,59.6922457 L1381.11707,59.6922457 L1381.11707,50 L1372.88211,50 L1372.88211,59.6922457 Z M1382.76504,59.6922457 L1391,59.6922457 L1391,50 L1382.76504,50 L1382.76504,59.6922457 Z" id="grid"></path>
        </g>
    </g>
</svg>