<?xml version="1.0" encoding="UTF-8"?>
<svg width="27px" height="21px" viewBox="0 0 27 21" version="1.1" xmlns="http://www.w3.org/2000/svg" xmlns:xlink="http://www.w3.org/1999/xlink">
    <!-- Generator: Sketch 46.2 (44496) - http://www.bohemiancoding.com/sketch -->
    <title>list</title>
    <desc>Created with Sketch.</desc>
    <defs></defs>
    <g id="Page-1" stroke="none" stroke-width="1" fill="none" fill-rule="evenodd">
        <g id="StyleSets" transform="translate(-1322.000000, -50.000000)" fill="#2468D5">
            <path d="M1322,63.4996228 L1328.35285,63.4996228 L1328.35285,57.4996228 L1322,57.4996228 L1322,63.4996228 Z M1322,71 L1328.35285,71 L1328.35285,65 L1322,65 L1322,71 Z M1322,56 L1328.35285,56 L1328.35285,50 L1322,50 L1322,56 Z M1329.94146,63.4996228 L1349,63.4996228 L1349,57.4996228 L1329.94146,57.4996228 L1329.94146,63.4996228 Z M1329.94146,71 L1349,71 L1349,65 L1329.94146,65 L1329.94146,71 Z M1329.94146,56 L1349,56 L1349,50 L1329.94146,50 L1329.94146,56 Z" id="list"></path>
        </g>
    </g>
</svg>