<?xml version="1.0" encoding="UTF-8"?>
<svg width="210px" height="140px" viewBox="0 0 210 140" version="1.1" xmlns="http://www.w3.org/2000/svg" xmlns:xlink="http://www.w3.org/1999/xlink">
    <!-- Generator: Sketch 46.2 (44496) - http://www.bohemiancoding.com/sketch -->
    <title>upload</title>
    <desc>Created with Sketch.</desc>
    <defs>
        <linearGradient x1="5.97907945%" y1="4.50518398%" x2="80.5288718%" y2="98.4108381%" id="linearGradient-1">
            <stop stop-color="#2468D5" offset="0%"></stop>
            <stop stop-color="#1E3BA3" offset="100%"></stop>
        </linearGradient>
    </defs>
    <g id="Page-1" stroke="none" stroke-width="1" fill="none" fill-rule="evenodd">
        <g id="StyleSets" transform="translate(-616.000000, -418.000000)" fill="url(#linearGradient-1)">
            <g id="DragAndDrop" transform="translate(0.000000, -4.000000)">
                <path d="M785.3125,474.85 C779.3625,444.6625 752.85,422 721,422 C695.7125,422 673.75,436.35 662.8125,457.35 C636.475,460.15 616,482.4625 616,509.5 C616,538.4625 639.5375,562 668.5,562 L782.25,562 C806.4,562 826,542.4 826,518.25 C826,495.15 808.0625,476.425 785.3125,474.85 L785.3125,474.85 Z M737.9,499.888889 L737.9,535 L703.1,535 L703.1,499.888889 L677,499.888889 L720.5,456 L764,499.888889 L737.9,499.888889 L737.9,499.888889 Z" id="upload"></path>
            </g>
        </g>
    </g>
</svg>